<svg xmlns="http://www.w3.org/2000/svg" viewBox="0 0 152.86 145.78"><defs><style>.cls-1{fill:#d20515;}.cls-2{fill:#fff;}</style></defs><g id="Layer_2" data-name="Layer 2"><g id="svg2"><rect class="cls-1" x="0.05" width="152.81" height="122.2"/><path class="cls-2" d="M125.94,64.4c0,.26-.26.52-.79.79l-.26.26v.27c0,.26,0,.26-.27.52l-.53.27h-.52v-.27l-.53.27v.26c0,.27,0,.27-.27.53l-.52.26h-.53V67.3c-1.85,1.06-4.22,1.85-6.34,2.9v.27c0,.26,0,.26-.26.53l-.53.26h-.53L113.8,71l-.79.26.26.26c0,.27,0,.27-.26.53l-.53.26H112l-.26-.26c-1.06.53-2.11.53-2.9-1-.27-.8-.27-2.38-.53-3.17a.93.93,0,0,0-.79-.53c-10-1.85-13.2.26-19.8-1.32-2.11-.53-3.16-2.37-5.54-2.37-5.28-.27-6.86,0-12.93-.27a4.06,4.06,0,0,0-.27,1.06H48.35L51.52,66l1,9a5.88,5.88,0,0,1-1,.27c.26,1.85.26,4.22.52,6.33,0,1.85.27,4,.27,5.28a4.82,4.82,0,0,1-.53,2.38,3.07,3.07,0,0,1-1.58,1.58,20.18,20.18,0,0,1-1.85,1.32l-2.64,1.32c0,.26.26.53.26.79-12.4,6.07-28,7.92-33,17.68-.52,1.06-2.64.53-2.64-.79v-1.85h-.26c-.26,0-.26-.26-.26-.52v-.53a.91.91,0,0,1,.26-.53h.26c0-.53.27-1.05.27-1.58h-.27c-.26,0-.26-.27,0-.53l.27-.53c0-.26.26-.53.53-.26h.26c.79-2.11,2.64-2.91,3.43-5h0c-.26,0-.26-.26,0-.52l-.26-.53c0-.27.26-.53.52-.27h.27c0-.26.26-.53.53-.79h-.27c-.26,0-.26-.26,0-.53l.27-.52c.26-.27.26-.27.52-.27h0l.27-.26a2.39,2.39,0,0,1,2.64,0,5.55,5.55,0,0,0,6.86-.53C30.93,91.05,36.74,85.25,41,85c-1.06-2.37-3.17-7.65-3.43-9.76L36.21,75c-.79-1.58-2.64-9-3.17-14.78,0,0-.53-6.07,0-8.18a3.87,3.87,0,0,0-1.05.53c-.8-1.85,1.84-18.21,4.22-23l4-1.58c-.53,0-3.17-.27-10.56-.8-4.22,3.7-8.71,7.66-11.35,9.77-.53.26-1.05,2.64-1.05,2.64a14.55,14.55,0,0,1-2.38,1.85c-1.58,1.05-5,1.84-5.81.52-.26-.26-.26-.52,0-.52.53-.53,2.64-1.59,3.44-2.91-1.06.53-2.38,1.32-3.44,1.06-.52,0-.79-1.06,0-1.32a8.59,8.59,0,0,0,3.7-2.11,3.8,3.8,0,0,1,3.43-2.11S23,25.07,27,20.85c1.06-1.06,3.17-.79,3.17-.79l.26-1.32s13.73-1.58,20.32.53c-.26-4,1.59-9,7.66-9,3.16,0,7.65,2.91,8.44,6.07.27,1.06-.52,1.85-.79,3.17-.53,2.11.27,4.22,0,4.75s-.79.53-1.32,1.32S63.39,28,63.39,28l-.79,1.84-4.22-.26C56.79,33,53.63,39.85,52.57,46.71h0C56,47,71.31,49.09,71.31,49.09l.26,1.32a46.8,46.8,0,0,1,11.62,3.17c1,.26,4.22-.27,6.07.79l.52-.53c6.87,2.11,12.67,5.81,19.27,7.39l4.22,1.06c2.38.52,4,.52,5.28.79a34.34,34.34,0,0,0,4.75.26c.79-.26,2.38-.53,2.64,1.06m10-20.85A8.45,8.45,0,1,0,144.42,52,8.5,8.5,0,0,0,136,43.55Z"/><path d="M13.53,141c0,2.91-1.38,4.46-5,4.46H0V129.09H8.16c3.81,0,5.12,1.49,5.12,4.28,0,2.1-.8,3.08-3,3.63l-.44.11.37.07C12.73,137.76,13.53,138.7,13.53,141ZM3.92,136H7.36c1.38,0,2-.58,2-2s-.58-2.07-2-2.07H3.92Zm5.66,4.67c0-1.48-.62-2.13-2-2.13H3.92v4.24H7.58C9,142.69,9.58,142.08,9.58,140.62Zm6.63-.47V129.09h4.1V140c0,1.81.84,2.5,3.05,2.5s3.05-.69,3.05-2.5V129.09H30.5v11c0,3.84-2.24,5.62-7.11,5.62S16.21,144,16.21,140.15Zm33.41-11.06v16.39h-5l-7-11.86v11.86H33.88V129.09h5l7,11.86V129.09Zm3.37,0h7.29c5.73,0,7.26,2.36,7.26,8.16s-1.64,8.2-7.26,8.2H53Zm7.18,13.28c2.4,0,3.16-1.24,3.16-5.08s-.76-5-3.16-5H57.05v10.12Zm10.34-13.28H82v3.12H74.61v3.45h6.13v3.08H74.61v3.59h7.54v3.12H70.51Zm14,15.74v-3.19a17,17,0,0,0,5.47.91c1.89,0,2.73-.51,2.73-1.78,0-1.09-.37-1.45-1.85-1.74l-2.72-.58c-2.83-.58-3.78-1.74-3.78-4.54,0-3.59,2.11-5.15,6.39-5.15a14.6,14.6,0,0,1,5.22.91v3.19a15,15,0,0,0-5-.87c-2,0-2.68.55-2.68,1.82,0,1.05.47,1.37,1.77,1.63l2.65.58c3.08.65,3.92,1.7,3.92,4.64,0,3.52-2.18,5.12-6.57,5.12A16.3,16.3,0,0,1,84.55,144.83Zm14.94-15.74h4.1v13.24h7v3.12H99.53Zm13.68,0h4.09v16.39h-4.09Zm21,6.93v8.92a18.49,18.49,0,0,1-5.66.84c-5.69,0-8.37-2.51-8.37-8.49s2.68-8.49,8.37-8.49a15,15,0,0,1,5.41.91v3.15a16.18,16.18,0,0,0-5.08-.87c-3.44,0-4.5,1.38-4.5,5.26,0,4,1.13,5.37,4.36,5.37a13.74,13.74,0,0,0,2.14-.15v-3.62h-3.05V136Zm13.35,6h-6.42L140,145.48h-4.06l5.84-16.39H147l5.84,16.39h-4.1Zm-3.19-10.38L142,139.07h4.72Z"/></g></g></svg>