<svg xmlns="http://www.w3.org/2000/svg" viewBox="0 0 465.01 237.88"><defs><style>.cls-1{fill:#fff;}.cls-2{fill:#001f47;}.cls-3{fill:#dadada;}.cls-4{fill:#dd0741;}</style></defs><g id="Layer_2" data-name="Layer 2"><g id="Layer_1-2" data-name="Layer 1"><path class="cls-1" d="M344.52,0V70.94c3,1.32,6.92,3.29,9.89,4.61v-1c0-10.88,3.3-9.56,10.56-12.86,2-.66,2.31-4.29,5.28-4.62,3.63-.33,11.55,1,14.85,2.64,2,1,2.31,2.31,3.3,4.29.66,2,4.29,3.3,5.28,5.61,1.65,4.61,0,10.88-4.95,12.53-1.65.66-9.24.33-9.24.33v7.26a10.23,10.23,0,0,0,2.31.66c12.54,3.3,81.49,24.09,83.14,27.72a.68.68,0,0,1-.66,1c-1.65.33-45.2-9.9-53.12-11.22-9.24-1.65-16.49-3.3-28.37-5v.66c0,3.63-.66,3.63-4,5v.66c4,.66,16.5,2.64,19.14,4.62,3,2,9.89-.33,14.84,6.27,1.32,1.64,1.32,8.9,0,10.88-2,3-4.29,1.65-6.93,2-1.65.33-2.64,2-4,2.64s-3.29.33-4.94.66c-3.63,0-5-3.3-7.59-4.95-1.32-1-2.64-.33-4.29-.66-2-.66-3.63-3-5.28-4-1-.66-3.63-.33-4.62.33-6.6,4-23.76,0-30.68-4.29l.33,42.9a31.56,31.56,0,0,1-4.29,14.51c-21.12,36.3-65.66,57.74-107.56,57.74h-.66c-41.9,0-86.44-20.78-107.56-57.08a31.37,31.37,0,0,1-4.62-15.17l.33-42.9C113.89,127,96.41,131,89.81,127c-1-.66-3.63-.66-4.62-.33-2,1-3.3,3.3-5.28,4-1.32.33-3-.33-4.29.66-2.64,1.65-4,5.28-7.59,4.95-1.65,0-3.63.33-5-.66-1.32-.66-2.31-2.31-3.95-2.64-3-.33-5,1-6.93-2-1.32-1.65-1.32-8.91,0-10.88,4.95-6.6,11.87-4.29,14.84-6.27,2.64-2,15.18-3.63,19.14-4.62v-.66c-3.3-1-4-1-4-5v-.66c-11.88,1.65-19.14,3.3-28.37,5C45.6,109.54,2.38,119.44.73,119.11c0,0-1-.33-.66-1,1.65-4,70.6-24.42,83.14-27.72a13.45,13.45,0,0,1,2.31-.66V82.48s-7.59.33-9.24-.33c-4.62-2-6.6-8.25-5-12.53,1-2.31,4.62-4,5.28-5.61.66-2,1.32-3.3,3.3-4.29,3.3-1.65,11.22-3,14.85-2.64,3,.33,3.63,3.63,5.28,4.62,7.26,3.3,10.55,1.65,10.55,12.86v1c3-1.32,6.93-3.29,9.9-4.61V0Z"/><path class="cls-2" d="M236.3,168.93l3.3,36.62,4.29-.33-3.3-36.62Zm-29-5.28-11.87,35,11.21,4,4-11.22-4-1.32-2.3,7.26-3-1,10.55-30.68Zm12.21,7.91-3.3,28.71a3.66,3.66,0,0,0,3.63,4.29l7.59,1,.66-4.29-7.59-1,1.32-11.88,5.61.66.66-4.29-5.61-.33,1.32-11.88,7.59,1,.66-4.28-7.59-1A4.27,4.27,0,0,0,219.47,171.56Zm59.39-21.77-3,3,25.74,26.06h0l3-3-25.73-26.06ZM258.4,168.27a4.26,4.26,0,0,0-4-3,2.48,2.48,0,0,0-1.31.33l-7.26,2.31,10.55,35v.33l4-1.32-4.62-15.51,3.3-1a3.49,3.49,0,0,0,2.31-2,3.21,3.21,0,0,0,.33-3Zm-3.63,13.85-3.62-11.55,3.29-1,3.63,11.54Zm60.71-29.69-12.54-7.92-3,5,3.62,2.31,1-1.32,10.23,6.6-1.65,2.64-24.74-15.18,1.65-2.64,4.95,3,2.31-3.63-3.63-2.31a5.32,5.32,0,0,0-3-1,5.82,5.82,0,0,0-4.95,2.64,6,6,0,0,0,2,8.25l21.77,13.86a5.32,5.32,0,0,0,3,1,5.82,5.82,0,0,0,4.95-2.64A6.7,6.7,0,0,0,315.48,152.43Zm-35,27.38,4,6.27-2.64,2-8.91-28-2.31-3.3-9.9,6.27,6.27,9.89,3.63-2.31-4-6.26,2.64-1.65,8.91,28,2.31,3.3,9.9-6.27-6.27-9.9Z"/><path class="cls-2" d="M136.66,178.16h0c21.77,32.34,57.41,48.17,96,48.17,38.27,0,74.23-15.83,95.68-48.17h0v-.33c3.3-5.61,4.62-9.23,4.62-21.11V125.37H327v31.35c0,11.22-1.32,13.52-4,18.14C303.27,204.23,270,220.39,232,220.39S160.74,204.23,141,174.86c-2.64-4.62-4-7.25-4-18.14V125.37h-5.94v31.35c1,11.88,2.31,15.83,5.61,21.44Z"/><polygon class="cls-2" points="130.39 66.32 130.39 9.9 334.62 9.9 334.62 66.32 337.92 67.97 337.92 6.6 127.42 6.6 127.42 67.97 130.39 66.32"/><polygon class="cls-2" points="132.04 11.22 132.04 65.66 137.65 63.02 137.65 17.16 327.36 17.16 327.36 63.02 333.3 65.66 333.3 11.22 132.04 11.22"/><path class="cls-2" d="M334.62,125.7v31.35c0,12.21-1.32,15.83-4.95,21.77v.66c-21.78,32.67-58.07,48.83-97,48.83s-75.23-16.16-97-48.83v-.66c-3.3-5.94-4.95-9.56-4.95-21.77V125.7h-3.3v31.35c0,12.87,1.65,17.15,5.28,23.42l.33.33.33.33c22.44,33.33,59.72,50.15,99.64,50.15s77.2-16.82,99.64-50.15l.33-.33.33-.33c3.63-6.27,5.28-10.55,5.28-23.42V125.7Z"/><path class="cls-2" d="M232.34,37.61a52.13,52.13,0,0,1,20.13,4,35.61,35.61,0,0,1-3,7.59,141.63,141.63,0,0,0-23.76-.33l-10.23-8.58a56.15,56.15,0,0,1,16.83-2.64Z"/><path class="cls-3" d="M279.85,116.14c-4.29-1-7.92-3-12.21-4.29-1.32.66-2.31,1.32-3,1.65a57.2,57.2,0,0,1-16.49,12.86c-15.51,8.25-34.32,8.25-49.82,1.32a55.85,55.85,0,0,1-9.57-5.61A55.57,55.57,0,0,0,229,144.51h2a55,55,0,0,0,29-8.25c8.58-4.29,15.18-11.22,19.8-20.12h0Z"/><path class="cls-2" d="M252.14,83.14A162.74,162.74,0,0,0,260.71,99c3-4.62,3.63-7.92,6.27-15.84,1-3,4.95-7.26,8.58-10.88a117.39,117.39,0,0,0-12.87-6.93A157.76,157.76,0,0,0,252.14,83.14Z"/><path class="cls-2" d="M196.05,51.8c-5,4.29-8.58,9.9-11.55,15.84.66.66,1.32,1,2,1.65.33-.66,1-1,1.32-1.65A119.67,119.67,0,0,1,196.05,51.8Z"/><path class="cls-2" d="M229,83.47A168.49,168.49,0,0,0,215.51,65s-14.84,6.6-20.12,9.56a33.25,33.25,0,0,0-.33,5c3.3,5.61,4.95,11.55,8.91,20.13,1,.66,1.65,1.65,2.63,2.31,3,.66,6.27,1.65,9.9,2.64C216.5,104.59,225.74,89.74,229,83.47Z"/><path class="cls-2" d="M227.72,123.39l23.1-.66,4.61,12.54A83.41,83.41,0,0,1,236,143.19c-11.22-2.31-17.49-7.26-17.49-7.26l9.24-12.54Z"/><path class="cls-2" d="M189.78,114.16c-2,.66-4,1.65-4.95,2h-.33a46.78,46.78,0,0,0,6.6,9.23,47.32,47.32,0,0,0,7.59,6.6c.66-.33,1-1,1.65-1.32C200.34,130.65,193.74,121.09,189.78,114.16Z"/><path class="cls-4" d="M58.8,122.4c-2.64.66-1.65,3.63-2.31,5.61a1.15,1.15,0,0,0,.66.33c1-.33,2.64,0,3.29-1a7.88,7.88,0,0,0,.66-3C60.77,123.72,59.79,122.4,58.8,122.4Zm261.63-11.21c-1.32.33-2.64,1-4.29.66-1.32,0-4-1.32-4.29.66-.33,1.32-1,2.31-1.32,3.63a2.19,2.19,0,0,0,1.32,1.65,9.64,9.64,0,0,0,3,.66c1.65-1,1.32-3,3-4,.66.33,1,1.32,1.65,1.32a3.42,3.42,0,0,0,2.31-1.65,2.1,2.1,0,0,0,0-2A3.46,3.46,0,0,0,320.43,111.19ZM368.6,83.47c.33.66,1.32,1.65.66,2-1.32,1-8.91-.33-9.24.66.33,1.65,5,2.64,6.27,3.3a6.47,6.47,0,0,0,4.95.33,5.83,5.83,0,0,0,3-5.61c0-1-1.32-3.3-2-4.29-.66-.66-5.28-4.62-4-5,1.65.66,4,0,5,1.65,3,1,6.27,1.32,9.57,2a6,6,0,0,0,5.61-2,3.58,3.58,0,0,0,0-3.63c-.66-1.31-2.31-1.64-3.3-2-1.32.33,0,1.65-1,2l-2.64-.32c-1.65-1.65,2-1.65,2-2.31.33-1.32-1-2.64,0-4a.71.71,0,0,0-.66-.66c-1.32-.66-9.57-2.64-10.89-2.31l-.33.33c.33.33,1.65,1.65,1.65,2,.66,1-3.3,1.65-4,2-3,.66-10.89,1.65-9.9,6.26C359.69,75.22,367.61,80.83,368.6,83.47Zm-286-5.28c3-.66,6.27-1,9.57-2,1-1.65,3.3-1,4.95-1.65,1.32.66-3.63,4.29-4,5a17.06,17.06,0,0,0-2,4.29,5.33,5.33,0,0,0,2.64,5.94c1.65,1,3.3.33,5-.33,1.32-.66,5.94-1.65,6.27-3.3-.33-1-7.59.33-9.24-.66-.66-.33.33-1.65.66-2,1-2.31,8.91-8.25,9.57-10.23,1.32-4.61-6.93-5.6-9.9-6.26-.66,0-4.29-1-4-2a12.56,12.56,0,0,0,1.65-2v-.33c-1,0-9.57,2-10.89,2.31a.71.71,0,0,0-.66.66c1,1.32-.33,2.64,0,4,.33,1,3.63.66,2,2.31l-2.64.33c-1.32-.66.33-1.65-1-2-1,.33-3,.66-3.3,2a3.56,3.56,0,0,0,0,3.62C78.26,77.86,80.24,78.52,82.55,78.19ZM65.72,120.43c-.33-.66-3.63,0-3.63.66C61.76,122.07,64.73,122.73,65.72,120.43Zm333.57,0c1,2,3.95,1.64,3.62.66C402.91,120.76,399.62,120.1,399.29,120.43Zm6.92,2c-1,0-2,1.32-2.31,2,0,1.32.66,2,.66,3,.66,1,2.31.66,3.3,1,.33,0,.33-.33.66-.33C407.86,126,408.52,123.06,406.21,122.4Zm37-10.22c-15.51-4.62-31-8.58-46.52-12.54-4.62-1.32-9.24-2.31-14.19-3.3-7.59-1.65-15.18-3.63-22.77-5-.66,0-1.65,0-2-.66.33-1.32-1.32-1.65-2.31-2l-6.92-2c-1.65-.33-3.3-1.32-5.28-1.65-2.31-.33-4-.33-5.28-2.31l.33-.33c2,.66,5.28,2.64,7.59,1,1-.66,2-2.64,1.65-3.63s-1.65-1-2.31-1.32c-3.3-1.32-6.6-3.3-9.9-5C328.35,70,321.42,66.65,314.49,63a55.85,55.85,0,0,0-10.23-4.29c-3-.66-5.93.33-8.57,1.65-2.31,1.32-2.31,4.95-4.29,4.62a1.21,1.21,0,0,1-.33-1c-.66-1.32-3,2-4.95,3-4.29,2-11.55,10.22-14.52,13.85-2,2.31-2.64,5.61-3.3,8.25l.33.66c1,.33,1.65,0,2.64-.66.66.33.66,1,1,1.65,3,4,11.22,1.65,15.51,3.3,0,.33,0,.66-.33.66a22.21,22.21,0,0,1-6.6-.33c-4.62,0-9.24-.33-13.86-.33l-.66.33a69,69,0,0,1-3.3,6.93c-.66.66-1.65,1.32-2.31,2-1.65,2-3,4.62-5.28,5.94-.66.33-2,.66-2.3,1.65l.33.33c6.92.66,7.58-6.6,12.2-8.25.33,0,.33.33.33.66a14.11,14.11,0,0,0-3,4.29c-2.64,5.61-4.62,4-7.26,6.27l.33.66c7.59-.33,8.91-4.62,11.55-4.95,2-.33,10.23,3.3,12.87,4.29a16.56,16.56,0,0,0,4,.66,14.29,14.29,0,0,1,1.65-.33c1,0,1.32,2,3.3.66,1.32-.66,1.32-2.64,1.65-4,.33-1.65-1.65-3-1.65-3.63.33-1.32,1.65.33,2-.66.33-.66-.66-2-1-2.31-1-1.32-4-3.63-3.3-5.28,0-.33.66-.66.66-.66l9.24,1c.33,0,1.65,3.3,1.65,3.63a25.86,25.86,0,0,1-1.65,4.62c-.66,2-2,3.3-2,5.28,0,2.64,1.65,5,3,7.26s4,1.32,5.93,2c1,.33,1.65,1,2.64,1.32a37.69,37.69,0,0,0,8.58,3c1.65.33,4,0,5-1.65.66-1-1.65-1.32-.66-2.64a2.45,2.45,0,0,1,2-.65c1.65.32,9.9,1.31,10.56.32.33-.32,0-.65-.33-1a39.9,39.9,0,0,0-5.94-1.65c-2.31-.66-4.62-.66-6.6-1.32s-1.65,1.32-3,2.31c-2,1.31-7.59-1.32-8.25-3.63s1.32-5,3-6.6c1-1.32,2.64-1.32,3.63-2.31.66-.66.33-1.65.33-2.31,1-1.32,5.28.66,6.93.33,2-.66.33-3,2-3.3a22.18,22.18,0,0,1,4,2c1,.33,2.64.66,3.3,1.32s0,1.65,0,2.31c.33,1,2,1.32,3,1.32,1.65.33,3.3,0,5,.33,1.65,0,3.3.66,4.62.66l5.28.66c1.32.66-.33,1.65,1,4-1.32-.33-6.27-1.65-6.93,0,4.62,4.29,14.84,7.25,20.78,7.91a42.57,42.57,0,0,0,11.22,0c2.31-.33,2.64-2.3,4.29-2.63s3.3,2.63,4.62,3.29a36,36,0,0,0,3.63,2c2,1.32,4-1,5.61,0,2,1,3.3,6.6,6.27,5.94a2.56,2.56,0,0,0,1.31-1.32c.66-1.65-.33-3-.65-4.62.65-1.32,2.63.66,2.63-.66-.33-.33-.66-.66-1-.66-3.62-1-3-4.94-8.24-5.93-2.31-.33-4.62-1-6.93-1.32-.66,0-2.31.33-2.31-.66l.33-.33h4.29v-.66c-6.6-1-13.2-2.64-19.8-3.63-.66-.33-1-2-1-2.31.33-1.32,2,1,3-1.32.66-1.32-.66-2.64.33-3.3l8.91,1c-16.5-4-33-7.26-49.49-11.22-3.63-1-7.26-1.32-10.89-2.64v-.33c14.52,2,29,5.61,43.55,7.26v-.33c-8.25-1.65-16.16-3.63-24.08-5-12.21-2.31-24.09-4-36.29-5.94-7.92-1.32-15.84-2.64-23.76-3.3l-.33.66a6.9,6.9,0,0,0,2,1.32v.66c-1,0-5.61.33-5.61-1,1.65-1.65,2-2.31,4.62-2.31,4,.33,7.59,1,11.55,1.32,21.77,3,43.88,5.61,65.65,9.57,23.1,4,45.86,7.92,68.63,13.53,3.63,1,27.71,7.59,28.7,7.26A111.14,111.14,0,0,1,443.17,112.18Zm-165-4.29a2.82,2.82,0,0,1-2.31,0c-1-.66-1-1.65-1.32-2.64,0-.33,0-.66.33-.66a4.61,4.61,0,0,1,3,1C277.87,106.24,278.53,106.9,278.2,107.89Zm77.53,8.58c2.31.66,4.95.66,7.26,1.32a1.49,1.49,0,0,1,1,1c0,.33-.66.33-.66.33l-9.9-2.64-1-.66C353.75,116.47,354.08,116.14,355.73,116.47ZM301.3,105.91a1.49,1.49,0,0,1,1-1c.65.33,1.31.33,1.64,1l-2.3,5c-1.65,2-.33,5,0,7.26,0,.33-.33.33-.66.66-1.65-1.65-3-4-2.31-6.27ZM282.82,78.19c-.33,0-1.65-.33-1.32-1,.33,0,.66-.33,1-.33l28.7,4.62,1.32.66C312.18,82.48,292.39,79.51,282.82,78.19Zm33-5c-4.95-1-10.23-2.3-15.17-3.62-.33,0-1.32-.33-1-.66,1.65-.33,10.22,2,12.2,2.64,1,.33,1.32,0,2.31,0a2.72,2.72,0,0,1,1.65,1.64ZM145.9,115.15c1,0,1-1,1.65-1.32,1.65,1,1.32,3,3,4a7.77,7.77,0,0,0,2.64-.66,2.19,2.19,0,0,0,1.32-1.65c-.33-1.32-1-2.31-1.32-3.63-.66-2-3-.66-4.62-.66-1.65.33-3-.33-4.29-.66-.33,0-.66.33-1,.66a2.1,2.1,0,0,0,0,2A3.09,3.09,0,0,0,145.9,115.15Zm63.67-6.27c-2.31-1.65-3.63-4-5.27-5.94-.66-.66-1.65-1.32-2.31-2a69,69,0,0,1-3.3-6.93L198,93.7c-4.62.33-9.24.33-13.86.33-2,0-4.62.33-6.6.33-.33,0-.33-.33-.33-.66,4.29-1.65,12.54,1,15.51-3.3.33-.66.33-1.65,1-1.65a6.22,6.22,0,0,0,2.64.66l.33-.66c-.66-3-1.32-5.94-3.3-8.25-3.3-4-10.56-11.87-14.52-13.85-2-1-4.29-4.29-4.95-3,0,.33-.33.66-.33,1-2,.33-1.65-3-4.29-4.62a12.68,12.68,0,0,0-8.58-1.65c-3.62.66-6.92,2.64-10.22,4.29-6.93,3.63-13.86,6.93-20.79,10.55l-9.9,5c-.66.33-2,.33-2.31,1.32a3.87,3.87,0,0,0,1.65,3.63c2.31,1.32,5.61-.33,7.59-1l.33.33c-1.65,2-3.3,2-5.28,2.31-1.65.33-3.3,1.32-5.28,1.65l-6.93,2c-1,.33-2.63.66-2.3,2-.33.66-1.32.66-2,.66-7.59,1.32-15.18,3.3-22.77,5-4.62,1-9.24,2-14.19,3.3-15.5,4-31,7.92-46.52,12.54-1.65.33-9.57,2.64-10.23,3.3,1,.33,25.41-6.27,28.71-7.26,22.76-5.61,45.53-9.57,68.62-13.53,21.78-3.63,43.89-6.6,65.66-9.57,4-.33,7.59-1,11.55-1.32,2.31-.33,3,.66,4.62,2.31,0,1-4.62.66-5.61,1v-.66a6.9,6.9,0,0,0,2-1.32l-.33-.66c-7.92.66-16.17,2.31-23.76,3.3-12.2,2-24.41,3.63-36.29,5.94-8.25,1.32-16.17,3.63-24.08,4.95v.33c14.51-1.65,29-5,43.55-7.26v.33c-3.63,1-7.26,1.65-10.89,2.64-16.5,4-33,7.26-49.49,11.22l8.91-1c1,.66-.33,2,.33,3.3,1,2.31,3,0,3,1.32a7,7,0,0,1-1,2.31c-6.6.66-13.2,2.64-19.8,3.63v.66h4.29l.33.33c0,1-1.65.66-2.31.66-2.31.33-4.62,1-6.93,1.32-5.28,1-4.62,4.94-8.25,5.93-.33,0-.66.33-1,.66,0,1.32,2-.66,2.64.66-.33,1.65-1.32,3-.66,4.62.33.66.66,1.32,1.32,1.32,3,1,4.29-4.62,6.27-5.94,1.65-1,3.63,1,5.61,0,1.32-.66,2.31-1.32,3.63-2s3-3.62,4.62-3.29c1.32.33,2,2.3,4.29,2.63a63.7,63.7,0,0,0,11.22,0c5.94-1,16.16-4,20.78-7.91-.66-1.65-5.61-.33-6.93,0,1-2.31-.33-3.63,1-4l5.28-.66c1.65,0,3-.66,4.62-.66a25,25,0,0,0,4.95-.33c1,0,2.64-.33,3-1.32,0-.66-.66-1.65,0-2.31.66-1,2.31-1,3.3-1.32,1.32-.66,2.31-1.65,4-2,1.65.33.33,3,2,3.3s5.94-1.65,6.93-.33c0,.66-.66,2,.33,2.31,1,1,2.64,1,3.63,2.31,1.32,1.65,3.62,4.29,3,6.6s-5.93,4.94-8.24,3.63c-1.32-1-1.32-2.64-3-2.31a58.27,58.27,0,0,1-6.6,1.32c-2,.66-4.29,1-5.94,1.65a.62.62,0,0,0-.33,1c1,1,9.24,0,10.56-.33a2.42,2.42,0,0,1,2,.66c1,1.32-1.32,1.65-.66,2.64a5.45,5.45,0,0,0,4.95,1.65,64.87,64.87,0,0,0,8.57-3c1-.33,1.65-1,2.64-1.32,2-.66,4.29.33,5.94-2,1.32-2.31,3-4.62,3-7.26,0-2-1.32-3.63-2-5.28-1.32-.66-2.64-4-2.64-4.62,0-.33,1.32-3.63,1.65-3.63l9.24-1a.71.71,0,0,1,.66.66c.33,2-2.31,4-3.3,5.28-.33.33-1.32,1.65-1,2.31.33,1,2-.66,2,.66,0,1-1.65,2.31-1.65,3.63.33,1.32.33,3.3,1.65,4,2.31,1,2.31-.66,3.3-.66a14.29,14.29,0,0,0,1.65.33,16.56,16.56,0,0,0,4-.66c2.64-.66,10.56-4.29,12.87-4.29,2.64.33,4,4.62,11.54,4.95l.33-.66c-2.64-2.64-4.61-1-7.25-6.27a33.47,33.47,0,0,0-3-4.29c0-.33,0-.66.33-.66,4.62,1.65,5.28,8.91,12.2,8.25l.33-.33C211.55,109.54,210.23,109.21,209.57,108.88Zm-60.7-36c.66-.65,1.32-1,2-1.64,1,0,1.32.33,2.31,0,2-.66,10.55-3,12.2-2.64,0,.66-.66.66-1,.66a80.71,80.71,0,0,1-15.5,3.62Zm33.32,5.28c-9.57,1.32-29.36,4.29-29.36,4.29l1.32-.66,28.7-4.62a1.21,1.21,0,0,1,1,.33C183.84,78.19,182.52,78.19,182.19,78.19ZM111.25,116.8l-9.89,2.64c-.33,0-.66,0-.66-.33a1.05,1.05,0,0,1,1-1,68.57,68.57,0,0,1,7.25-1.32,12.38,12.38,0,0,1,3.3-.33Zm52.46,1.65a.71.71,0,0,1-.66-.66c.66-2,1.65-5,0-7.26l-2.31-5c.33-.66,1-.66,1.65-1a1.05,1.05,0,0,1,1,1l2.64,6.27C167,114.82,165.36,117.13,163.71,118.45Zm25.74-10.56c-.66,0-2,.33-2.31,0-.33-.66.33-1.32.66-2,.66-1,1.65-1,3-1,.33.33.33.33.33.66C190.44,106.24,190.11,107.23,189.45,107.89Z"/><path class="cls-3" d="M278.53,69.29c.66-.66,1.32-1,1.65-1.32-.33-.33.33,0,0,0l.33-.33a35.69,35.69,0,0,0-3.63-5.94A28.25,28.25,0,0,1,278.53,69.29Z"/><path class="cls-2" d="M182.52,144.84l-4.29-6.27-30,21.12,2.31,3.3,13.19-9.24,2,2.64L154.81,164c-1,.66-1.32,1.65-2,2.31h0l2.64,3.63.33-.33a3.84,3.84,0,0,1,1.64-2.31l9.9-6.93q2-1.48,2-3c.33,0,.66.33,1.32.33a4.69,4.69,0,0,0,2-.66l9.57-6.6a4.53,4.53,0,0,0,1.65-2.64A8.15,8.15,0,0,0,182.52,144.84Zm-3.3,2.31-9.9,6.93-2-3h0l9.9-6.93,2,3Z"/><path class="cls-2" d="M194.07,158a4.07,4.07,0,0,0-1.32-2.64l-5.94-5-24.09,28,5.94,4.95a3.75,3.75,0,0,0,2.64,1,4.18,4.18,0,0,0,3-1.32l7.26-8.25c1-1.32,1.65-2.31,1-3.63h.66a2.5,2.5,0,0,0,2.31-1.31l7.59-8.58C194.07,160,194.4,159,194.07,158ZM179.22,170.9l-7.92,9.24-2.64-2.31,8.25-9.23,2.31,2.3Zm2.64-3.29-2.31-2.31,7.92-9.24,2.64,2.31Z"/></g></g></svg>