<svg xmlns="http://www.w3.org/2000/svg" viewBox="0 0 245.95 243.13"><defs><style>.cls-1{fill:#14110d;fill-rule:evenodd;}</style></defs><g id="Layer_2" data-name="Layer 2"><g id="Layer_1-2" data-name="Layer 1"><path class="cls-1" d="M105,19.27a86.68,86.68,0,0,0-13.89,4.4c3.54-4.84,10.74-10.76,10.74-10.76a67.4,67.4,0,0,1-3.73-9.23,69.16,69.16,0,0,1,14.84,2.58S124,.19,135.47,0c0,0-8.37,4.83-11.92,9.32.94.5,7.63,2.5,12.84,5.57,0,0-9.42.27-18.06,1.45,0,0-3,4.29-5.61,14.06A62,62,0,0,1,105,19.27Z"/><path class="cls-1" d="M149.7,27.36a133.62,133.62,0,0,0-13.31-12.47c7,.1,17.39,4.23,17.39,4.23A52.36,52.36,0,0,0,157.23,10,59.64,59.64,0,0,1,163,24.17a57.28,57.28,0,0,1,14.47,13.2A66.88,66.88,0,0,0,166.2,36c0,1.07,1.76,9.84,1.38,15.88,0,0-5.3-8.61-10.27-15.78a75.53,75.53,0,0,0-16.38,2.44s4.7-5.43,8.77-11.22Z"/><path class="cls-1" d="M158.84,68.7c4.2-7.09,8.74-16.78,8.74-16.78a91.63,91.63,0,0,1,1.51,14.76c4.17-.88,11.56-4.43,11.56-4.43A44.81,44.81,0,0,1,170,77.74a104.12,104.12,0,0,1,.83,12.18A104.68,104.68,0,0,1,161.27,85a44,44,0,0,1-15,5.92s3.74-5.84,6.83-11.54a48.76,48.76,0,0,1-11-10.71s9.48,1.2,16.75,0Z"/><path class="cls-1" d="M129.09,54.24a189.51,189.51,0,0,0,13,14.42,120.44,120.44,0,0,1-19.38-4.59c-4.34,7-9.08,15.06-9.08,15.06a86.55,86.55,0,0,1-3.1-18.75s-5.38-1.88-15.28-5.78a65.78,65.78,0,0,1,15.1-6.55c-.49-.95.78-12.81,2.37-17.65,0,0,4.82,7.81,8.74,13.56,0,0,7.68-2.61,19.47-5.38,0,0-6.45,8.19-11.84,15.66Z"/><path class="cls-1" d="M70.37,84.46c-.65-1.22-1.26-2.46-1.82-3.73A67.38,67.38,0,0,1,70.13,66.8s-3.11-2.16-6.32-5c0-.49-.08-1-.11-1.47a84,84,0,0,1,9.19-2.87c.39-1,2.52-7.86,6.64-12.59a101.2,101.2,0,0,0,1.39,10.88A61.69,61.69,0,0,1,95.25,54.6,84,84,0,0,0,83.43,66.12a68,68,0,0,0,5,13.12c-5-2.82-10.26-6.55-10.26-6.55a135.91,135.91,0,0,0-7.79,11.77Z"/><path class="cls-1" d="M111.82,114.86c-.8-.14-1.61-.32-2.4-.5a91.76,91.76,0,0,1-10-12.68s-11.69-1-19.92-4.55A58.28,58.28,0,0,0,93.75,92a74.63,74.63,0,0,1-5.33-12.75s7.14,5.77,12.43,9.15a87.13,87.13,0,0,0,12.78-9.26s-1.54,7.45-2.39,16c6,3.43,11.82,6.52,11.82,6.52a78.27,78.27,0,0,1-12.1.7,62.56,62.56,0,0,0,.86,12.55Z"/><path class="cls-1" d="M162.67,99.67a84.55,84.55,0,0,1-15.93,2.43s-.06-5.37-.45-11.19a113.06,113.06,0,0,1-9.63,11.63c-6.44-.09-13.6-.93-13.6-.93,4,4,7.58,7.28,7.58,7.28a83.2,83.2,0,0,1-9.34,6.88c.64,0,1.29,0,1.93,0a58.54,58.54,0,0,0,39.44-16.11Z"/><path class="cls-1" d="M64.41,47.4a86.13,86.13,0,0,1,9.34-9.73,36.11,36.11,0,0,0,5.78,7.24s0-5.06.61-13a119.39,119.39,0,0,1,10.93-8.26,77.78,77.78,0,0,0-9.17-.08,75.64,75.64,0,0,1,4-12.47A58.69,58.69,0,0,0,64.41,47.4Z"/><path class="cls-1" d="M177.12,202.94c-7.52,0-12.09-6.3-12.09-13.21a12,12,0,0,1,12.28-12.39c7.71,0,12.35,6.12,12.35,12.84,0,8-5.77,12.76-12.54,12.76Zm-.41-22c-4.69,0-6.08,4.46-6.08,7.48,0,4.41,2,10.87,7.36,10.87,3.85,0,6.08-3.43,6.08-7.54,0-4.38-1.69-10.81-7.36-10.81Z"/><path class="cls-1" d="M131.08,199.36c0,1.36.27,1.84,2.46,2.27v.94c-2.38-.11-3.86-.23-5.25-.23s-2.87.12-4.53.23v-.95c1.47-.26,1.74-.9,1.74-2.68V180.47c0-1.06-.46-1.55-1.74-1.59v-1h11.17c7,0,9.53,3.32,9.53,7.71,0,4.68-3.55,7.56-8.43,7.56-1.85,0-4.57-.95-4.57-1.74,0-.34.23-.34.57-.34s.83.11,1.32.11c4,0,5.52-2.23,5.52-5.36,0-3.41-2.12-4.62-5.45-4.62l-2.34.26v18Z"/><path class="cls-1" d="M151.76,180.24c0-1.05-.46-1.55-1.74-1.58v-1c1.66.12,3.13.23,4.53.23s2.87-.11,4.53-.23v1c-1.28,0-1.73.53-1.73,1.58V200c0,1.06.45,1.55,1.73,1.59v.94c-1.66-.11-3.13-.23-4.53-.23s-2.87.12-4.53.23v-.94c1.28,0,1.74-.53,1.74-1.59v-19.8Z"/><path class="cls-1" d="M197.24,180.22c0-1.05-.46-1.55-1.75-1.58v-1c1.67.11,3.14.23,4.54.23a17,17,0,0,0,3.33-.23l10.42,16.89h.08V180.75c0-2-1.25-2.11-2.27-2.11v-1c1.25.11,2.45.23,3.63.23s2.49-.12,3.7-.23v1c-1.29,0-1.74.53-1.74,1.58v22.35h-4l-12.54-19.51h-.08v16.43c0,2,1.24,2.11,2.26,2.11v1c-1.24-.11-2.45-.23-3.62-.23s-2.5.12-3.71.23v-1c1.29,0,1.75-.53,1.75-1.58v-19.8Z"/><path class="cls-1" d="M226.64,194c.78,4.24,3.56,6.22,7.73,6.22,2.29,0,5.59-.66,5.59-3.58,0-2.33-2.41-3-4.2-3.5l-2.76-.81c-4-1.17-7.93-2.84-7.93-7.43,0-6,5.83-7.85,11.62-7.85a21.52,21.52,0,0,1,7.24,1.24c0,2.81.16,5.17.31,7.19h-1c-.82-3.58-3.73-5.25-7.23-5.25-1.95,0-5.21.63-5.21,3.31,0,2.14,1.86,2.76,3.45,3.22l4.09,1.18c3.92,1.12,7.58,2.57,7.58,7.62s-5.17,7.85-11.51,7.85A25.46,25.46,0,0,1,226,202c0-3.08-.11-5.75-.31-8Z"/><path class="cls-1" d="M30.24,180.24c0-1.05-.45-1.55-1.74-1.58v-1c1.66.12,3.14.23,4.53.23s2.87-.11,4.53-.23v1c-1.28,0-1.73.53-1.73,1.58v7.48H45v-7.49c0-1.05-.45-1.55-1.73-1.58v-1c1.65.12,3.13.23,4.53.23s2.87-.11,4.53-.23v1c-1.28,0-1.74.53-1.74,1.58V200c0,1.06.46,1.55,1.74,1.58v1c-1.66-.12-3.14-.23-4.54-.23s-2.87.11-4.53.23v-1c1.29,0,1.74-.52,1.74-1.58v-8.69H35.83V200c0,1.06.45,1.55,1.73,1.58v1c-1.66-.12-3.13-.23-4.53-.23s-2.87.11-4.53.23v-1c1.28,0,1.74-.52,1.74-1.58v-19.8Z"/><path class="cls-1" d="M66.28,191.76c1-2.67,2.19-5.66,3.06-8.68h.07a73,73,0,0,0,2.19,8.68Zm-9.15,10.81c1.33-.11,2.62-.23,3.94-.23s2.6.12,3.89.23v-.95c-1.25-.08-1.78-.52-1.78-1.21a3.86,3.86,0,0,1,.31-1.32l1.65-4.46h7.37l1.21,3.67a6.42,6.42,0,0,1,.38,1.88c0,.88-.49,1.18-1.89,1.44v.95c1.62-.11,3.25-.23,4.87-.23s3.21.12,4.8.23v-.95c-1.13-.3-1.7-.79-2.27-2.45l-7-21.5a35.25,35.25,0,0,1-3.55.23c-1.17,0-2.34-.11-3.55-.23v1c1,0,1.44.59,1.44,1a5.44,5.44,0,0,1-.49,1.47L59.1,199.88a2.29,2.29,0,0,1-2,1.74v.95Z"/><path class="cls-1" d="M89.5,183.79c0-1,.11-2.11.11-3.62,0-1.18-.26-1.32-1.7-1.51v-1a37.3,37.3,0,0,0,3.86.23c1.36,0,2.72-.11,4.08-.23l6.61,17.52,5.93-17.52c1.32.12,2.61.23,3.93.23s2.64-.11,3.93-.23v1c-1.32.11-1.51.53-1.51,1.55s.14,2.76.26,4l1.21,16.13c.08,1,1.17,1.14,1.93,1.25v.95c-1.63-.11-3.29-.23-4.91-.23s-3.29.12-4.84.23v-.95c1.85-.23,2.34-.56,2.34-2.3,0-.91-.12-2.61-.22-3.85l-.87-11.26h-.08l-6.31,18.57h-3.17L92.86,184h-.08l-.3,11.07c0,2-.11,3-.11,4,0,1.89.19,2.31,2.46,2.57v.95c-1.51-.11-2.91-.23-4.35-.23s-2.79.12-4,.23v-.95c1.47-.11,2.08-.45,2.15-2l.83-15.79Z"/><path class="cls-1" d="M22.81,201.18A15.41,15.41,0,0,1,14.09,204C5.09,204,0,197,0,189.81c0-7.32,5.09-14.4,14.85-14.39a20.6,20.6,0,0,1,6.83,1c0,2.87.15,5.63.36,8.36H21c-.67-3.49-3.1-5.34-6.61-5.34-4.75,0-8.42,3.74-8.42,10.06,0,4.76,3.92,10.15,9.43,10.15a13.89,13.89,0,0,0,7.94-3.18l-.48,4.69Z"/><path class="cls-1" d="M63.7,216.23c0-.82-.35-1.2-1.34-1.23v-.8c1.29.1,2.42.17,3.5.17,1.23,0,3-.07,3.85-.17v.8c-1.49.06-1.69.79-1.69,1.6v14.29h5.39c1.93,0,2.72-.88,3.21-3.1h.95a34.34,34.34,0,0,0-.71,5.67H62.36v-.8c1,0,1.34-.41,1.34-1.23v-15.2Z"/><path class="cls-1" d="M82.26,216.32c0-.81-.35-1.2-1.34-1.22v-.79H95.66c0,1.6.08,2.9.23,4.47h-.8c-.29-1.6-.7-2.16-2.27-2.16H86.58v5.64h3.88c1.31,0,1.51-.44,1.68-1.49h.8a27.67,27.67,0,0,0-.17,2.78,27.29,27.29,0,0,0,.17,2.77h-.8c-.17-1-.37-1.49-1.68-1.49H86.58v6.06h6.56c1.57,0,2.07-.53,2.57-3h1a53.71,53.71,0,0,0-.35,5.55H80.92v-.8c1,0,1.34-.41,1.34-1.23V216.32Z"/><path class="cls-1" d="M100.17,232.67a1.8,1.8,0,0,0,1.52-1.35l5.72-14.45a4.14,4.14,0,0,0,.38-1.13c0-.29-.33-.76-1.12-.76v-.8c.94.09,1.84.18,2.75.18s1.83-.09,2.74-.18l5.37,16.6c.44,1.27.87,1.65,1.75,1.89v.79c-1.23-.09-2.48-.18-3.71-.18s-2.51.09-3.76.18v-.79c1.08-.21,1.46-.45,1.46-1.11a5.19,5.19,0,0,0-.29-1.46l-.94-2.81h-5.68l-1.29,3.42a3.29,3.29,0,0,0-.23,1c0,.52.41.87,1.37.94v.79c-1-.09-2-.18-3-.18s-2,.09-3,.18v-.79Zm11.17-7.6a54.83,54.83,0,0,1-1.69-6.69h-.06c-.67,2.32-1.61,4.63-2.36,6.69Z"/><path class="cls-1" d="M134.88,226.63c0-1.16-.53-1.22-1.84-1.24v-1c1.2.1,2.39.19,3.62.19s2.59-.09,3.91-.19v.93c-1,0-1.55.28-1.55,1.6v6.53h-1.69l-.67-2a8.07,8.07,0,0,1-5.75,2.33c-5.48,0-9-4.52-9-9.77,0-6.33,4.23-10.16,10.53-10.16a11.22,11.22,0,0,1,5.75,1.36c0,1.43.06,3.08.17,5.09h-.84c-.37-2.6-2.84-3.88-5.26-3.88-4.05,0-6,3.1-6,6.86s2,7.71,5.43,7.71c2.07,0,3.21-1,3.21-2.31v-2.1Z"/><path class="cls-1" d="M146.43,216.23c0-.82-.35-1.2-1.34-1.23v-.8a32.62,32.62,0,0,0,3.35.17c1.52,0,2.72-.07,3.88-.17v.8c-1.26.06-1.57.29-1.57,1.43v10.9c0,3.3,1.37,3.93,3.73,3.93s3.74-.69,3.74-3.93v-10.9c0-1.14-.32-1.37-1.58-1.43v-.8c1.17.1,2.36.17,3.88.17a32.62,32.62,0,0,0,3.35-.17v.8c-1,0-1.34.41-1.34,1.23v10.49c0,5.4-2.8,7.11-8.05,7.11s-8-1.71-8-6.7v-10.9Z"/><path class="cls-1" d="M170,216.32c0-.81-.34-1.2-1.34-1.22v-.79h14.74c0,1.6.09,2.9.23,4.47h-.79c-.3-1.6-.71-2.16-2.28-2.16h-6.23v5.56h3.87c1.31,0,1.51-.44,1.69-1.49h.8a27.42,27.42,0,0,0-.18,2.77,26.86,26.86,0,0,0,.18,2.77h-.8c-.18-1-.38-1.49-1.69-1.49h-3.87v6.15h6.55c1.58,0,2.07-.53,2.57-3h1c-.26,2.4-.32,3.94-.35,5.55H168.7v-.8c1,0,1.34-.41,1.34-1.23V216.32Z"/><path class="cls-1" d="M95.28,170.75a35,35,0,0,1,53.3.64l1.7-1.6a37.33,37.33,0,0,0-56.6-.62l1.6,1.58Z"/><polygon class="cls-1" points="118.67 152.19 108.42 154.32 105.84 141.91 115.95 139.81 116.42 142.08 109.78 143.47 110.32 146.07 116.66 144.75 117.13 147.03 110.79 148.34 111.42 151.33 118.2 149.92 118.67 152.19 118.67 152.19"/><polygon class="cls-1" points="138.22 144.18 132.11 142.89 131.53 145.65 137.64 146.95 137.16 149.22 131.06 147.93 129.98 153.02 126.52 152.29 129.13 139.89 138.71 141.91 138.22 144.18 138.22 144.18"/><path class="cls-1" d="M153,165.4l-3-2.88.48-2.72-5.22-3.62-2.3,1.45-3.46-1.93,12.32-7.34,3.36,2.33L153,165.4ZM152,151.84l-4.65,2.93,3.7,2.57.95-5.5Z"/><path class="cls-1" d="M96.68,160.31c-2.27,1.81-6.12,3.27-8.94,0l-4.07-5.22,2.72-2.15,4,5.13c1.44,1.7,3.25,1.37,4.7.23s2.18-2.82.86-4.62l-4-5.12,2.72-2.14,4.07,5.22c2.43,3.33.92,6.33-2.06,8.7Z"/><path class="cls-1" d="M165.47,153a59.93,59.93,0,0,0-87.28.41l-1.85-1.88a63.1,63.1,0,0,1,91-.29L165.47,153Z"/><path class="cls-1" d="M189.3,243.13a4.74,4.74,0,1,1,0-9.48v.45a4.3,4.3,0,0,0,0,8.6v.43Z"/><path class="cls-1" d="M187.35,235.56h1.91a2.32,2.32,0,0,1,1.53.39,1.39,1.39,0,0,1,.55,1.11,1.4,1.4,0,0,1-1.24,1.34,1.32,1.32,0,0,1,.7.4,2.63,2.63,0,0,1,.44,1.29l.09.43a1.18,1.18,0,0,0,.18.55h-.57a2,2,0,0,1-.21-.72c-.2-1.13-.23-1.21-.51-1.48s-.51-.28-1.14-.28h-1.2v2.48h-.53v-5.51Zm1.93,2.61c.94,0,1.51-.42,1.51-1.11s-.55-1.1-1.6-1.1h-1.32v2.21Z"/><path class="cls-1" d="M189.3,243.13a4.74,4.74,0,1,0,0-9.48v.45a4.3,4.3,0,0,1,0,8.6v.43Z"/></g></g></svg>