<svg xmlns="http://www.w3.org/2000/svg" xmlns:xlink="http://www.w3.org/1999/xlink" width="500" zoomAndPan="magnify" viewBox="0 0 375 374.999991" height="500" preserveAspectRatio="xMidYMid meet" version="1.0"><defs><g/><clipPath id="5fa41d3998"><path d="M 132 50.296875 L 242.972656 50.296875 L 242.972656 91 L 132 91 Z M 132 50.296875 " clip-rule="nonzero"/></clipPath><clipPath id="56362f8c90"><path d="M 132 90 L 242.972656 90 L 242.972656 130.546875 L 132 130.546875 Z M 132 90 " clip-rule="nonzero"/></clipPath></defs><g clip-path="url(#5fa41d3998)"><path fill="#dc1f26" d="M 230.617188 50.296875 L 144.332031 50.296875 C 137.523438 50.296875 132.003906 55.824219 132.003906 62.644531 L 132.003906 90.421875 L 242.945312 90.421875 L 242.945312 62.644531 C 242.945312 55.824219 237.425781 50.296875 230.617188 50.296875 Z M 230.617188 50.296875 " fill-opacity="1" fill-rule="nonzero"/></g><g clip-path="url(#56362f8c90)"><path fill="#eeeeee" d="M 242.945312 118.203125 C 242.945312 125.019531 237.425781 130.546875 230.617188 130.546875 L 144.332031 130.546875 C 137.523438 130.546875 132.003906 125.019531 132.003906 118.203125 L 132.003906 90.421875 L 242.945312 90.421875 Z M 242.945312 118.203125 " fill-opacity="1" fill-rule="nonzero"/></g><g fill="#ffcc04" fill-opacity="1"><g transform="translate(43.523439, 187.405905)"><g><path d="M 10.125 -4.183594 L 11.339844 -1.484375 L 13.90625 0.136719 L 18.359375 -0.269531 L 22.410156 0.136719 L 41.984375 -0.136719 L 44.683594 0.269531 L 58.589844 -0.40625 L 61.019531 -0.808594 L 68.578125 -2.96875 L 71.011719 -4.183594 L 76.410156 -8.503906 L 80.054688 -13.5 L 81.40625 -16.199219 L 82.214844 -18.765625 L 83.296875 -21.328125 L 83.566406 -32.265625 L 82.078125 -37.125 L 79.648438 -42.660156 L 77.894531 -44.683594 L 75.734375 -46.574219 L 74.386719 -49.679688 L 75.328125 -52.246094 L 77.894531 -57.511719 L 79.515625 -62.371094 L 79.648438 -66.960938 L 79.378906 -71.144531 L 78.300781 -76.003906 L 77.355469 -78.839844 L 72.898438 -85.050781 L 70.875 -86.941406 L 68.851562 -88.289062 L 66.960938 -89.773438 L 64.664062 -91.125 L 62.101562 -92.339844 L 59.804688 -93.148438 L 54.539062 -94.363281 L 40.636719 -94.769531 L 38.203125 -94.230469 L 32.941406 -94.90625 L 30.511719 -94.363281 L 14.175781 -94.636719 L 11.203125 -93.285156 L 9.855469 -90.449219 L 9.855469 -87.480469 L 10.125 -85.050781 L 9.988281 -82.214844 L 10.125 -79.785156 L 9.855469 -71.820312 L 10.261719 -66.148438 L 9.71875 -40.363281 L 10.125 -36.316406 L 9.855469 -6.75 Z M 37.800781 -57.644531 L 34.964844 -59.265625 L 33.480469 -63.046875 L 33.34375 -67.636719 L 34.964844 -71.550781 L 37.53125 -73.171875 L 51.433594 -72.226562 L 53.59375 -71.144531 L 54.675781 -68.984375 L 55.078125 -64.933594 L 54.136719 -61.019531 L 52.109375 -59.398438 L 48.195312 -58.050781 Z M 37.394531 -21.601562 L 34.964844 -22.546875 L 33.210938 -25.246094 L 33.613281 -33.34375 L 34.828125 -35.640625 L 37.125 -37.394531 L 39.691406 -36.988281 L 42.523438 -37.261719 L 55.214844 -36.046875 L 57.511719 -35.101562 L 58.859375 -32.671875 L 59.671875 -29.296875 L 58.996094 -25.378906 L 57.511719 -23.488281 L 55.214844 -22.003906 L 47.789062 -21.328125 Z M 37.394531 -21.601562 "/></g></g></g><g fill="#ffcc04" fill-opacity="1"><g transform="translate(132.62109, 187.405905)"><g/></g></g><g fill="#ffcc04" fill-opacity="1"><g transform="translate(169.206098, 187.405905)"><g/></g></g><g fill="#ffcc04" fill-opacity="1"><g transform="translate(205.791106, 187.405905)"><g/></g></g><g fill="#ffcc04" fill-opacity="1"><g transform="translate(242.367176, 187.405905)"><g><path d="M 10.125 -4.183594 L 11.339844 -1.484375 L 13.90625 0.136719 L 18.359375 -0.269531 L 22.410156 0.136719 L 41.984375 -0.136719 L 44.683594 0.269531 L 58.589844 -0.40625 L 61.019531 -0.808594 L 68.578125 -2.96875 L 71.011719 -4.183594 L 76.410156 -8.503906 L 80.054688 -13.5 L 81.40625 -16.199219 L 82.214844 -18.765625 L 83.296875 -21.328125 L 83.566406 -32.265625 L 82.078125 -37.125 L 79.648438 -42.660156 L 77.894531 -44.683594 L 75.734375 -46.574219 L 74.386719 -49.679688 L 75.328125 -52.246094 L 77.894531 -57.511719 L 79.515625 -62.371094 L 79.648438 -66.960938 L 79.378906 -71.144531 L 78.300781 -76.003906 L 77.355469 -78.839844 L 72.898438 -85.050781 L 70.875 -86.941406 L 68.851562 -88.289062 L 66.960938 -89.773438 L 64.664062 -91.125 L 62.101562 -92.339844 L 59.804688 -93.148438 L 54.539062 -94.363281 L 40.636719 -94.769531 L 38.203125 -94.230469 L 32.941406 -94.90625 L 30.511719 -94.363281 L 14.175781 -94.636719 L 11.203125 -93.285156 L 9.855469 -90.449219 L 9.855469 -87.480469 L 10.125 -85.050781 L 9.988281 -82.214844 L 10.125 -79.785156 L 9.855469 -71.820312 L 10.261719 -66.148438 L 9.71875 -40.363281 L 10.125 -36.316406 L 9.855469 -6.75 Z M 37.800781 -57.644531 L 34.964844 -59.265625 L 33.480469 -63.046875 L 33.34375 -67.636719 L 34.964844 -71.550781 L 37.53125 -73.171875 L 51.433594 -72.226562 L 53.59375 -71.144531 L 54.675781 -68.984375 L 55.078125 -64.933594 L 54.136719 -61.019531 L 52.109375 -59.398438 L 48.195312 -58.050781 Z M 37.394531 -21.601562 L 34.964844 -22.546875 L 33.210938 -25.246094 L 33.613281 -33.34375 L 34.828125 -35.640625 L 37.125 -37.394531 L 39.691406 -36.988281 L 42.523438 -37.261719 L 55.214844 -36.046875 L 57.511719 -35.101562 L 58.859375 -32.671875 L 59.671875 -29.296875 L 58.996094 -25.378906 L 57.511719 -23.488281 L 55.214844 -22.003906 L 47.789062 -21.328125 Z M 37.394531 -21.601562 "/></g></g></g><g fill="#ffcc04" fill-opacity="1"><g transform="translate(144.251885, 225.749978)"><g><path d="M 46.441406 1.214844 L 49.679688 0.136719 L 52.648438 -3.78125 L 54.40625 -7.558594 L 55.214844 -10.394531 L 57.78125 -14.714844 L 58.589844 -17.414062 L 59.941406 -20.25 L 60.75 -22.546875 L 62.234375 -24.976562 L 67.5 -37.261719 L 68.445312 -40.230469 L 70.875 -44.550781 L 82.621094 -72.359375 L 83.96875 -74.789062 L 86.265625 -79.648438 L 86.941406 -82.214844 L 89.503906 -86.941406 L 90.449219 -90.585938 L 89.773438 -93.421875 L 87.34375 -93.960938 L 84.511719 -94.230469 L 82.078125 -94.636719 L 79.515625 -94.363281 L 76.816406 -94.230469 L 71.683594 -94.769531 L 68.714844 -93.015625 L 66.421875 -90.71875 L 53.863281 -61.019531 L 53.054688 -58.183594 L 51.839844 -55.890625 L 51.300781 -53.460938 L 49.949219 -51.03125 L 47.25 -43.46875 L 45.898438 -41.039062 L 44.414062 -41.308594 L 41.039062 -48.601562 L 40.5 -51.164062 L 38.203125 -55.753906 L 31.453125 -73.304688 L 27.945312 -80.460938 L 24.164062 -90.71875 L 21.871094 -93.015625 L 18.765625 -94.363281 L 11.070312 -94.636719 L 8.371094 -94.230469 L 3.238281 -94.230469 L 1.078125 -93.285156 L 0 -90.585938 L 4.320312 -79.109375 L 5.671875 -77.085938 L 6.34375 -74.519531 L 7.425781 -71.820312 L 8.910156 -69.796875 L 9.855469 -66.960938 L 22.003906 -39.691406 L 22.816406 -36.988281 L 26.191406 -29.96875 L 27.136719 -27.136719 L 29.429688 -22.546875 L 30.914062 -20.113281 L 31.589844 -17.414062 L 36.988281 -4.589844 L 38.203125 -2.566406 L 40.90625 -0.269531 L 43.875 0.808594 Z M 46.441406 1.214844 "/></g></g></g></svg>